<?xml version="1.0"?>
<!-- Converted with SVG Converter - Version 0.9.5 (Compiled Mon May 30 09:08:51 2011) - Copyright (C) 2011 Nokia -->
<svg xmlns="http://www.w3.org/2000/svg" width="2400px" height="2400px" viewBox="0 0 2400 2400" baseProfile="tiny" xmlns:xlink="http://www.w3.org/1999/xlink" xml:space="preserve">
 <g id="Layer 1">
  <g>
   <path style="fill:none;stroke:#0085C5;stroke-width:75;stroke-linecap:round;" d="M1198 352c260,2 504,121 663,324 158,202 212,465 147,713"/>
   <path style="fill:none;stroke:#0085C5;stroke-width:75;stroke-linecap:round;" d="M1812 1004c78,104 144,229 194,372"/>
   <path style="fill:none;stroke:#0085C5;stroke-width:75;stroke-linecap:round;" d="M1810 1003c79,14 151,34 213,61"/>
   <path style="fill:none;stroke:#0085C5;stroke-width:75;stroke-linecap:round;" d="M589 1422c-84,-112 -154,-248 -209,-402"/>
   <path style="fill:none;stroke:#0085C5;stroke-width:75;stroke-linecap:round;" d="M581 1423c-74,-14 -141,-34 -198,-60"/>
   <path style="fill:none;stroke:#0085C5;stroke-width:75;stroke-linecap:round;" d="M1191 2015c-247,-2 -481,-115 -637,-308 -156,-193 -219,-446 -172,-690"/>
  </g>
 </g>
</svg>
