<?xml version="1.0"?>
<!-- Converted with SVG Converter - Version 0.9.5 (Compiled Mon May 30 09:08:51 2011) - Copyright (C) 2011 Nokia -->
<svg xmlns="http://www.w3.org/2000/svg" width="2400px" height="2400px" viewBox="0 0 2400 2400" baseProfile="tiny" xmlns:xlink="http://www.w3.org/1999/xlink" xml:space="preserve">
 <g id="Layer 1">
  <g>
   <path style="fill:none;stroke:#0085C5;stroke-width:50;stroke-linecap:round;" d="M1197 79c345,2 670,160 881,430 210,269 282,619 195,947"/>
   <path style="fill:none;stroke:#0085C5;stroke-width:50;stroke-linecap:round;" d="M2013 946c103,137 191,304 258,493"/>
   <path style="fill:none;stroke:#0085C5;stroke-width:50;stroke-linecap:round;" d="M2011 944c105,18 200,45 282,80"/>
   <path style="fill:none;stroke:#0085C5;stroke-width:50;stroke-linecap:round;" d="M388 1500c-111,-149 -205,-330 -278,-534"/>
   <path style="fill:none;stroke:#0085C5;stroke-width:50;stroke-linecap:round;" d="M377 1502c-98,-19 -187,-46 -262,-81"/>
   <path style="fill:none;stroke:#0085C5;stroke-width:50;stroke-linecap:round;" d="M1188 2288c-329,-3 -639,-153 -847,-409 -207,-256 -291,-593 -228,-917"/>
  </g>
 </g>
</svg>
